<?xml version="1.0" standalone="no"?>
<!DOCTYPE svg PUBLIC "-//W3C//DTD SVG 20010904//EN"
 "http://www.w3.org/TR/2001/REC-SVG-20010904/DTD/svg10.dtd">
<svg version="1.0" xmlns="http://www.w3.org/2000/svg"
 width="1000.000000pt" height="409.000000pt" viewBox="0 0 1000.000000 409.000000"
 preserveAspectRatio="xMidYMid meet">

<g transform="translate(0.000000,409.000000) scale(0.100000,-0.100000)"
fill="#000000" stroke="none">
<path d="M1133 4080 c-283 -30 -536 -147 -740 -343 -191 -183 -308 -394 -365
-657 -19 -88 -21 -137 -25 -647 -3 -394 -2 -553 6 -553 6 0 11 4 11 8 0 16 84
148 142 223 l58 76 0 370 c0 281 4 391 15 454 75 433 411 769 844 844 69 12
229 15 913 15 l829 0 67 54 c37 29 106 77 155 106 48 29 87 55 87 57 0 7
-1928 0 -1997 -7z"/>
<path d="M3665 4083 c-94 -7 -196 -27 -285 -55 -389 -122 -687 -418 -817 -808
-54 -165 -56 -179 -60 -715 -2 -275 -3 -529 -1 -565 l3 -65 34 60 c37 66 121
186 157 225 l23 25 3 420 4 420 27 89 c123 398 427 672 822 741 74 13 219 15
916 15 l829 0 67 55 c38 30 107 78 156 106 48 29 87 54 87 56 0 4 -1911 1
-1965 -4z"/>
<path d="M6120 4079 c-571 -57 -1034 -510 -1111 -1087 -14 -106 -7 -310 15
-410 90 -417 377 -756 770 -912 116 -46 230 -70 401 -85 127 -11 160 -17 203
-39 65 -33 115 -85 150 -155 23 -47 27 -69 27 -137 0 -73 -4 -88 -35 -150 -25
-50 -49 -79 -85 -106 -104 -79 11 -73 -1404 -76 -724 -1 -1293 1 -1331 7 -126
17 -214 80 -265 187 -35 73 -39 171 -12 251 23 66 94 146 161 181 l51 27 990
5 990 5 -60 34 c-75 42 -204 132 -229 160 l-19 21 -811 0 c-665 0 -823 -3
-879 -15 -197 -42 -365 -209 -413 -412 -20 -85 -13 -214 15 -296 45 -128 148
-245 273 -308 123 -62 59 -60 1520 -57 l1333 3 65 25 c174 68 301 206 345 375
19 76 19 204 -1 280 -35 138 -141 270 -269 337 -95 49 -129 57 -285 68 -292
20 -511 114 -700 300 -249 246 -357 606 -285 950 73 350 324 637 663 760 173
63 121 61 1638 57 l1379 -3 80 -21 c200 -55 331 -130 476 -273 211 -209 309
-441 309 -735 0 -275 -93 -511 -279 -707 l-78 -83 81 -86 c135 -144 225 -321
261 -514 26 -134 17 -348 -19 -469 -101 -340 -345 -595 -673 -705 -148 -50
-178 -51 -1068 -51 l-832 0 -19 -21 c-24 -27 -185 -139 -244 -170 l-45 -24
100 -3 c55 -2 514 -1 1020 1 889 3 923 4 1010 24 259 60 456 167 633 344 298
298 424 707 346 1121 -35 188 -115 363 -248 543 -6 8 5 30 32 66 99 132 176
305 213 480 31 146 31 362 0 508 -50 238 -151 429 -321 605 -185 193 -391 309
-660 369 -94 21 -109 21 -1440 23 -740 1 -1383 -2 -1430 -7z"/>
<path d="M1091 3719 c-188 -37 -357 -132 -493 -279 -89 -96 -157 -211 -200
-340 l-32 -95 -4 -343 -3 -342 64 49 c36 26 83 59 105 71 l40 23 5 241 c5 272
11 308 79 446 60 124 170 231 299 294 155 75 168 76 929 76 l658 0 59 86 c32
47 64 95 72 105 13 19 -3 19 -760 18 -426 -1 -794 -5 -818 -10z"/>
<path d="M3610 3723 c-182 -31 -362 -125 -493 -260 -83 -85 -120 -137 -168
-233 -78 -156 -82 -183 -87 -569 l-3 -344 33 29 c19 16 66 50 105 74 l72 45 1
223 c0 260 10 322 73 452 55 115 185 248 297 302 153 74 116 71 897 77 l701 6
51 75 c27 41 60 87 71 103 l22 27 -774 -1 c-425 -1 -784 -4 -798 -6z"/>
<path d="M6035 3706 c-112 -29 -187 -63 -275 -121 -191 -127 -323 -312 -382
-535 -18 -69 -22 -110 -21 -220 1 -160 20 -247 86 -385 145 -300 459 -504 779
-505 162 -1 295 -42 424 -131 131 -91 234 -245 270 -405 24 -112 16 -273 -21
-374 -60 -166 -189 -312 -340 -385 -155 -75 -44 -70 -1550 -70 -1277 0 -1354
1 -1422 18 -314 81 -529 373 -510 696 14 251 146 456 365 569 152 79 105 75
970 81 l772 6 -28 35 c-16 19 -48 66 -72 103 l-42 68 -722 -3 c-807 -4 -765
-1 -934 -79 -239 -110 -420 -321 -493 -571 -27 -94 -37 -301 -19 -402 58 -330
307 -605 642 -708 l73 -23 1390 -3 1391 -2 99 25 c354 90 616 378 671 738 43
280 -52 564 -255 767 -78 78 -135 118 -239 170 -113 57 -205 79 -375 90 -237
16 -364 68 -502 206 -347 345 -212 952 248 1119 124 46 149 46 1537 43 1474
-4 1351 2 1509 -78 169 -86 286 -226 343 -410 19 -62 23 -96 22 -200 0 -110
-4 -135 -28 -205 -37 -107 -77 -174 -149 -252 -67 -72 -119 -110 -205 -153
-133 -66 -99 -63 -950 -69 l-774 -6 30 -37 c16 -20 48 -66 71 -102 l43 -65
701 -4 c788 -3 746 0 902 -80 59 -30 102 -62 161 -121 90 -91 130 -154 170
-271 24 -70 28 -96 28 -205 1 -104 -3 -137 -22 -200 -71 -228 -244 -397 -477
-466 -54 -16 -125 -18 -762 -21 l-702 -4 -22 -37 c-12 -20 -44 -68 -71 -105
l-49 -68 798 3 798 3 75 23 c313 96 547 339 626 648 63 249 10 528 -140 737
-56 79 -177 194 -248 237 l-56 33 61 40 c227 147 379 397 407 670 38 375 -171
733 -524 897 -172 81 -33 74 -1596 77 l-1395 2 -90 -23z"/>
<path d="M1128 3364 c-95 -23 -177 -70 -253 -148 -133 -134 -165 -230 -165
-503 0 -95 2 -173 4 -173 2 0 50 15 107 34 l104 34 5 158 c5 148 7 163 33 216
30 62 83 115 149 150 l43 23 621 3 622 3 31 97 c18 53 35 103 37 110 8 19
-1258 16 -1338 -4z"/>
<path d="M3626 3364 c-191 -46 -355 -212 -401 -405 -19 -84 -22 -423 -2 -416
6 2 54 17 104 33 l93 29 0 125 c0 225 47 325 185 399 l50 26 619 5 619 5 37
108 37 107 -641 -1 c-517 -1 -652 -3 -700 -15z"/>
<path d="M6145 3370 c-255 -51 -435 -272 -435 -534 0 -153 49 -274 155 -381
110 -112 212 -152 414 -165 289 -19 513 -114 698 -297 530 -526 351 -1420
-341 -1700 -180 -73 -72 -68 -1636 -68 l-1405 0 -89 23 c-365 93 -642 360
-753 727 -25 84 -27 102 -27 280 0 179 1 195 28 280 122 397 427 671 825 740
68 12 207 15 736 15 l652 0 -36 110 -36 111 -650 -4 c-704 -5 -701 -4 -880
-63 -96 -32 -235 -100 -316 -155 -72 -49 -232 -200 -287 -272 -311 -404 -345
-968 -84 -1400 173 -287 442 -490 760 -572 170 -45 240 -46 1642 -43 l1325 4
98 22 c506 116 879 495 978 997 18 90 18 378 1 460 -74 342 -266 628 -547 813
-201 133 -381 190 -672 211 -168 12 -243 56 -310 184 -24 45 -28 63 -28 142 0
84 2 94 34 153 40 73 98 125 171 153 49 18 92 19 1373 19 l1322 0 60 -29 c199
-93 253 -350 108 -511 -45 -50 -98 -84 -156 -101 -16 -4 -466 -9 -1000 -10
-1059 -1 -997 3 -887 -54 49 -25 203 -136 214 -154 5 -8 244 -11 819 -11 666
0 824 3 880 15 195 41 365 209 412 407 68 287 -118 585 -406 653 -55 13 -239
15 -1374 14 -720 -1 -1328 -5 -1350 -9z"/>
<path d="M1125 2499 c-478 -50 -903 -391 -1054 -845 -66 -197 -66 -198 -66
-959 l0 -690 107 -3 108 -3 0 674 c0 725 2 762 53 912 122 358 416 613 790
686 89 17 149 19 697 19 l600 0 0 110 0 110 -577 -1 c-318 -1 -614 -5 -658
-10z"/>
<path d="M1080 2134 c-327 -70 -577 -297 -687 -624 l-28 -85 -3 -712 -3 -713
105 0 105 0 3 682 c4 766 1 728 81 888 79 159 224 279 412 341 70 23 73 23
683 27 l612 3 0 105 0 104 -607 -1 c-480 0 -622 -4 -673 -15z"/>
<path d="M1175 1793 c-214 -28 -414 -221 -454 -437 -7 -39 -11 -282 -11 -708
l0 -649 108 3 107 3 5 670 5 670 28 57 c34 70 101 131 173 158 53 19 76 20
639 20 l585 0 0 110 0 110 -577 -1 c-318 -1 -591 -4 -608 -6z"/>
<path d="M7535 1783 c5 -10 22 -59 39 -110 l31 -92 620 -3 620 -3 51 -27 c109
-58 178 -171 178 -293 0 -96 -27 -160 -98 -230 -106 -104 -66 -99 -766 -102
l-605 -3 -36 -105 -36 -105 636 0 c708 0 706 0 833 67 172 90 288 283 288 478
0 254 -195 488 -444 534 -39 7 -277 11 -689 11 -595 0 -629 -1 -622 -17z"/>
</g>
</svg>
