<?xml version="1.0" standalone="no"?>
<!DOCTYPE svg PUBLIC "-//W3C//DTD SVG 20010904//EN"
 "http://www.w3.org/TR/2001/REC-SVG-20010904/DTD/svg10.dtd">
<svg version="1.0" xmlns="http://www.w3.org/2000/svg"
 width="170.000000pt" height="155.000000pt" viewBox="0 0 170.000000 155.000000"
 preserveAspectRatio="xMidYMid meet">

<g transform="translate(0.000000,155.000000) scale(0.100000,-0.100000)"
fill="#000000" stroke="none">
<path d="M280 1285 l0 -25 570 0 570 0 0 25 0 25 -570 0 -570 0 0 -25z"/>
<path d="M1300 1113 c-58 -36 -247 -152 -420 -258 -173 -107 -324 -201 -335
-210 -18 -14 11 -15 330 -11 374 4 408 8 480 57 62 43 65 55 65 283 0 113 -3
206 -7 205 -5 0 -55 -30 -113 -66z"/>
<path d="M381 1155 c-95 -23 -96 -25 -99 -255 -2 -110 -1 -200 2 -200 3 0 43
24 88 53 90 58 308 196 508 322 69 43 129 82 134 87 17 14 -572 8 -633 -7z"/>
<path d="M405 463 c46 -10 47 -13 3 -49 -23 -20 -45 -38 -47 -40 -2 -2 25 -3
60 -2 35 0 49 3 32 5 -18 2 -33 8 -33 12 0 4 20 22 45 40 25 18 45 34 45 37 0
2 -28 3 -62 3 -35 -1 -54 -3 -43 -6z"/>
<path d="M579 463 c-21 -5 -42 -45 -37 -69 4 -26 89 -32 124 -9 28 18 33 69 8
79 -17 7 -69 6 -95 -1z m71 -33 c0 -19 -7 -33 -19 -40 -33 -17 -51 -12 -51 14
0 29 24 56 51 56 14 0 19 -7 19 -30z"/>
<path d="M750 445 c-22 -57 -23 -75 -5 -75 9 0 19 9 22 20 3 11 9 20 13 20 5
0 12 -9 15 -20 4 -11 15 -20 26 -20 16 0 19 5 14 20 -5 15 0 26 17 40 20 17
21 21 8 30 -8 5 -34 10 -58 10 -36 0 -44 -4 -52 -25z m75 4 c8 -12 6 -15 -22
-23 -18 -6 -20 -4 -16 14 6 21 28 27 38 9z"/>
<path d="M931 420 c-36 -43 -39 -50 -22 -50 11 0 22 4 25 9 3 5 17 9 31 9 14
0 25 -4 25 -9 0 -5 10 -9 21 -9 19 0 21 4 15 38 -3 20 -6 43 -6 50 0 6 -11 12
-23 12 -16 0 -38 -16 -66 -50z m59 5 c0 -18 -5 -25 -20 -25 -20 0 -20 1 -4 25
9 14 18 25 20 25 2 0 4 -11 4 -25z"/>
<path d="M1129 428 c-11 -29 -23 -45 -40 -49 -20 -6 -18 -7 13 -8 31 -1 40 4
51 27 28 53 30 72 10 72 -13 0 -24 -13 -34 -42z"/>
<path d="M1230 421 c-34 -42 -38 -51 -23 -51 10 0 23 4 29 10 6 6 23 6 47 -2
20 -6 40 -9 43 -6 3 4 2 26 -3 50 -13 63 -39 63 -93 -1z m60 -1 c0 -11 -7 -20
-15 -20 -17 0 -18 2 -9 24 9 23 24 20 24 -4z"/>
<path d="M926 295 c-9 -26 -7 -32 5 -12 6 10 9 21 6 23 -2 3 -7 -2 -11 -11z"/>
<path d="M1265 289 c-4 -6 -5 -12 -2 -15 2 -3 7 2 10 11 7 17 1 20 -8 4z"/>
</g>
</svg>
